<svg xmlns="http://www.w3.org/2000/svg" viewBox="0 0 800 500" role="img" aria-labelledby="title desc">
  <title id="title">RIS-DMRN stitched-image rectification method summary</title>
  <desc id="desc">Verified schematic of rigid-structure prediction, adaptive mesh selection, and residual rectification with local and global losses.</desc>
  <rect width="800" height="500" rx="24" fill="#f4f7f8"/>
  <text x="38" y="48" font-family="Inter,Arial,sans-serif" font-size="23" font-weight="700" fill="#143a52">RIS-DMRN · STITCHED-IMAGE RECTIFICATION</text>
  <text x="38" y="72" font-family="Inter,Arial,sans-serif" font-size="11" font-weight="700" letter-spacing="1.5" fill="#687983">PAPER METHOD SUMMARY · APPLIED SCIENCES 2024</text>
  <text x="40" y="108" font-family="Inter,Arial,sans-serif" font-size="11" font-weight="700" fill="#566771">IRREGULAR STITCHED INPUT</text>
  <path d="M42 133l192-27 37 50-17 180-202 24z" fill="#dfeaf0" stroke="#2a6688" stroke-width="3"/>
  <g fill="none" stroke="#78a0b5" stroke-width="1.5"><path d="M86 127l-8 227M132 120l7 228M178 114l22 225M225 110l-10 232"/><path d="M46 187l217-8M48 244l211-3M50 302l206-2"/></g>
  <path d="M52 294l53-59 45 25 50-75 62 52" fill="none" stroke="#d3a341" stroke-width="5"/>
  <path d="M280 234h28" stroke="#2d6c91" stroke-width="3"/><path d="M300 227l10 7-10 7" fill="none" stroke="#2d6c91" stroke-width="3"/>
  <rect x="322" y="100" width="246" height="274" rx="14" fill="#fff" stroke="#ccd8dd"/>
  <text x="342" y="128" font-family="Inter,Arial,sans-serif" font-size="13" font-weight="700" fill="#163f59">STRUCTURE-AWARE PIPELINE</text>
  <rect x="342" y="146" width="206" height="40" rx="9" fill="#e6f0f4"/><text x="445" y="164" text-anchor="middle" font-family="Inter,Arial,sans-serif" font-size="10" font-weight="700" fill="#245c7e">RIGID-STRUCTURE CNN</text><text x="445" y="177" text-anchor="middle" font-family="Inter,Arial,sans-serif" font-size="9" fill="#50616a">predict content geometry</text>
  <path d="M445 186v15" stroke="#2d6c91" stroke-width="2"/><path d="M439 195l6 8 6-8" fill="none" stroke="#2d6c91" stroke-width="2"/>
  <text x="342" y="218" font-family="Inter,Arial,sans-serif" font-size="10" font-weight="700" fill="#566771">ADAPTIVE MESH</text>
  <g fill="none" stroke="#2a6688" stroke-width="2"><path d="M349 247l17-20 17 20z"/><rect x="414" y="227" width="36" height="22"/><path d="M483 227h25l12 11-12 11h-25l-12-11z"/></g>
  <text x="366" y="265" text-anchor="middle" font-family="Inter,Arial,sans-serif" font-size="8" fill="#566771">triangle</text><text x="432" y="265" text-anchor="middle" font-family="Inter,Arial,sans-serif" font-size="8" fill="#566771">rectangle</text><text x="496" y="265" text-anchor="middle" font-family="Inter,Arial,sans-serif" font-size="8" fill="#566771">hexagon</text>
  <path d="M445 274v15" stroke="#2d6c91" stroke-width="2"/><path d="M439 283l6 8 6-8" fill="none" stroke="#2d6c91" stroke-width="2"/>
  <rect x="342" y="296" width="206" height="56" rx="9" fill="#173f58"/><text x="445" y="318" text-anchor="middle" font-family="Inter,Arial,sans-serif" font-size="11" font-weight="700" fill="#fff">WIDE RESNET</text><text x="445" y="337" text-anchor="middle" font-family="Inter,Arial,sans-serif" font-size="9" fill="#cfe2ed">local loss + global loss</text>
  <path d="M579 234h28" stroke="#2d6c91" stroke-width="3"/><path d="M599 227l10 7-10 7" fill="none" stroke="#2d6c91" stroke-width="3"/>
  <text x="620" y="108" font-family="Inter,Arial,sans-serif" font-size="11" font-weight="700" fill="#566771">RECTIFIED OUTPUT</text>
  <rect x="620" y="128" width="142" height="226" rx="4" fill="#fff" stroke="#2a6688" stroke-width="3"/>
  <g fill="none" stroke="#78a0b5" stroke-width="1.5"><path d="M655 128v226M691 128v226M726 128v226"/><path d="M620 184h142M620 241h142M620 297h142"/></g>
  <path d="M624 292l34-55 33 24 35-75 32 50" fill="none" stroke="#d3a341" stroke-width="5"/>
  <rect x="38" y="398" width="724" height="64" rx="14" fill="#e5eef2"/>
  <text x="60" y="423" font-family="Inter,Arial,sans-serif" font-size="11" font-weight="700" fill="#566771">REPORTED ON DIR-D</text>
  <text x="60" y="448" font-family="Inter,Arial,sans-serif" font-size="21" font-weight="700" fill="#1e5a7c">SSIM 0.7234</text><path d="M253 412v36" stroke="#b7c7ce"/><text x="278" y="448" font-family="Inter,Arial,sans-serif" font-size="21" font-weight="700" fill="#1e5a7c">PSNR 22.65</text><text x="594" y="448" font-family="Inter,Arial,sans-serif" font-size="11" fill="#566771">content + boundary regularity</text>
</svg>
